<?xml version="1.0" standalone="no"?>
<!DOCTYPE svg PUBLIC "-//W3C//DTD SVG 20010904//EN"
 "http://www.w3.org/TR/2001/REC-SVG-20010904/DTD/svg10.dtd">
<svg version="1.0" xmlns="http://www.w3.org/2000/svg"
 width="464.000000pt" height="538.000000pt" viewBox="0 0 464.000000 538.000000"
 preserveAspectRatio="xMidYMid meet">

<g transform="translate(0.000000,538.000000) scale(0.100000,-0.100000)"
fill="#000000" stroke="none">
<path d="M2805 4685 c-16 -13 -25 -24 -19 -25 10 0 54 36 54 45 0 8 -4 6 -35
-20z"/>
<path d="M3341 4627 c-14 -14 -14 -37 -2 -37 6 0 13 5 16 10 3 6 15 10 26 10
10 0 19 4 19 9 0 13 -48 19 -59 8z"/>
<path d="M2510 4582 c-32 -26 -136 -100 -294 -209 -33 -24 -66 -50 -72 -58 -6
-8 -13 -12 -16 -9 -4 3 -23 -12 -44 -33 -21 -21 -35 -31 -30 -23 4 8 -2 3 -14
-13 -12 -15 -26 -24 -31 -21 -9 5 -89 -42 -89 -53 0 -2 5 -1 12 3 7 4 8 3 4
-5 -4 -6 -12 -9 -17 -6 -5 4 -42 -16 -82 -44 -62 -43 -82 -51 -149 -61 -325
-48 -673 -224 -908 -460 -121 -120 -271 -317 -308 -403 -13 -30 -6 -30 31 1
11 10 21 12 27 6 13 -13 -50 -59 -143 -104 -37 -18 -67 -39 -67 -46 0 -18 -56
-56 -77 -52 -10 2 -17 -2 -15 -10 1 -6 -1 -11 -5 -11 -19 3 -34 -2 -29 -9 3
-5 0 -9 -7 -9 -19 0 -68 -34 -62 -43 3 -5 0 -12 -6 -16 -8 -4 -9 -3 -5 4 11
18 -6 14 -33 -7 -20 -15 -22 -21 -12 -39 7 -12 16 -22 21 -22 5 0 54 29 109
65 54 36 101 65 104 65 2 0 7 -9 10 -20 4 -17 -12 -32 -94 -86 -88 -58 -98
-67 -89 -85 14 -25 31 -24 90 6 42 21 48 22 43 8 -5 -13 2 -10 26 10 24 20 43
27 76 27 37 0 47 5 74 38 44 52 47 56 52 69 4 11 206 146 297 199 33 19 33 19
45 -1 6 -11 12 -24 13 -30 0 -5 2 -15 2 -22 3 -23 71 -34 110 -17 39 16 72 11
72 -12 0 -8 10 -19 23 -23 l22 -9 -25 -11 c-25 -11 -25 -11 5 -8 28 2 30 0 28
-32 -2 -46 -19 -61 -39 -33 -8 12 -19 22 -25 22 -5 0 -22 14 -37 31 l-28 31
-30 -25 c-23 -21 -27 -28 -16 -38 6 -7 12 -20 12 -29 0 -9 9 -25 21 -36 13
-12 18 -26 15 -40 -5 -18 -2 -21 27 -20 17 1 35 6 39 11 4 6 8 2 8 -7 0 -13 8
-18 27 -18 26 0 26 1 7 15 -19 16 -19 16 1 13 25 -4 33 -38 9 -38 -16 0 -16
-1 -1 -18 22 -24 21 -35 -2 -27 -36 11 -53 -5 -46 -41 3 -19 4 -34 2 -34 -9 0
-63 31 -86 48 -22 18 -22 20 -8 47 13 26 13 32 -5 66 -26 51 -42 63 -57 45 -8
-9 -8 -16 -2 -20 11 -7 4 -36 -10 -36 -5 0 -12 15 -17 33 -4 17 -12 30 -18 27
-9 -5 -9 -36 1 -113 4 -36 4 -37 -23 -31 -15 4 -37 11 -50 15 -32 12 -32 12
-33 -13 -1 -17 -2 -19 -6 -5 -5 20 -19 23 -25 5 -3 -8 -10 -3 -18 12 -9 17
-10 25 -1 28 18 6 13 22 -8 22 -11 0 -23 5 -26 10 -3 6 -2 10 2 10 5 0 9 9 10
20 2 17 -1 18 -17 10 -42 -23 -38 -58 14 -113 40 -43 76 -59 126 -57 47 2 58
0 38 -8 -32 -13 9 -64 70 -88 1 -1 0 -9 -4 -18 -8 -20 -72 -22 -88 -2 -9 12
-13 12 -23 2 -9 -11 -6 -16 13 -26 15 -9 24 -23 25 -39 l1 -26 7 25 c9 33 82
48 119 24 45 -30 49 -93 6 -113 -50 -22 -91 -11 -108 30 -10 24 -12 18 -12
-49 0 -67 3 -80 23 -98 22 -21 33 -72 13 -59 -6 4 -10 3 -9 -2 4 -16 -13 -84
-20 -78 -6 7 -8 13 -10 45 -1 18 -5 17 -32 -13 -29 -32 -33 -34 -57 -21 -14 7
-32 23 -39 36 -10 19 -12 20 -13 5 0 -10 -4 -16 -9 -13 -5 4 -4 -5 2 -19 7
-14 20 -28 29 -31 10 -3 26 -17 38 -31 25 -32 13 -57 -37 -78 -45 -19 -63 -19
-63 0 0 8 -4 15 -10 15 -17 0 -11 -15 15 -40 14 -13 25 -20 25 -16 0 5 7 3 15
-4 8 -7 15 -21 15 -31 0 -15 -7 -19 -34 -19 -24 0 -50 -13 -100 -50 -60 -46
-66 -53 -60 -78 15 -62 51 -80 97 -49 19 13 49 29 66 36 27 12 30 17 25 46 -3
19 0 36 6 40 6 3 45 1 86 -6 l76 -12 -23 -18 c-13 -10 -30 -19 -36 -19 -17 0
-17 -56 0 -63 18 -7 20 -62 2 -77 -14 -11 -13 -14 2 -25 10 -6 38 -17 62 -25
40 -13 46 -12 80 7 42 24 111 39 111 24 0 -6 10 -15 21 -22 16 -8 20 -8 15 0
-8 12 53 43 66 35 4 -3 3 -15 -2 -28 -5 -13 -6 -27 -2 -32 4 -4 1 -4 -6 0 -7
5 -12 1 -12 -10 0 -16 -2 -16 -20 1 -19 17 -20 17 -14 1 4 -11 -1 -26 -16 -41
-25 -26 -64 -26 -108 1 -20 13 -22 13 -22 -3 0 -16 -1 -16 -12 0 -9 11 -18 14
-27 8 -16 -10 -6 -31 14 -31 8 0 19 -8 24 -17 9 -16 10 -15 11 6 0 24 0 24 20
6 l21 -19 -21 -11 c-11 -6 -17 -14 -14 -18 4 -4 3 -7 -3 -7 -6 0 -14 7 -17 16
-4 11 -15 14 -41 11 -28 -4 -33 -2 -25 8 15 18 -11 26 -33 10 -9 -6 -16 -14
-14 -16 1 -2 -3 2 -10 9 -6 7 -13 9 -16 5 -3 -5 12 -27 33 -50 44 -48 83 -59
150 -44 65 15 94 14 182 -10 l78 -21 0 -48 c0 -50 11 -66 61 -87 20 -9 29 -9
38 0 8 8 14 8 23 -1 10 -10 5 -19 -22 -44 -19 -18 -27 -29 -17 -25 9 3 17 2
17 -3 0 -6 -5 -10 -11 -10 -5 0 -8 -4 -5 -9 3 -4 0 -16 -7 -26 -13 -16 -14
-16 -30 0 -17 17 -53 14 -43 -4 3 -5 -2 -12 -11 -15 -9 -4 -20 -1 -25 6 -5 9
-8 9 -8 1 0 -6 16 -21 37 -33 56 -33 103 -21 163 43 l48 51 18 -36 c22 -46 48
-54 79 -22 13 13 35 24 47 24 35 0 68 27 68 56 0 34 24 40 71 19 28 -13 39
-24 39 -40 0 -32 19 -44 56 -36 3 0 -4 13 -16 28 l-21 28 23 9 c13 5 41 17 64
27 52 24 99 24 125 0 21 -19 18 -48 -3 -35 -7 5 -8 2 -4 -5 5 -8 0 -14 -13
-18 -20 -5 -21 -6 -4 -20 12 -9 14 -16 7 -19 -7 -3 -28 -19 -47 -37 -19 -18
-45 -39 -58 -48 -19 -13 -21 -19 -12 -31 15 -17 1 -41 -19 -33 -9 4 -19 2 -23
-4 -3 -7 0 -8 9 -5 9 3 16 2 16 -4 0 -6 13 -7 35 -2 32 7 35 6 30 -10 -9 -30
84 -90 139 -90 18 0 95 80 127 132 11 18 15 11 46 -78 l28 -79 47 1 c31 0 54
7 67 18 19 18 19 19 2 59 -52 118 -53 120 -39 128 7 5 20 9 28 10 8 0 22 2 31
4 22 4 47 -13 33 -22 -13 -9 -36 -72 -30 -82 3 -4 28 -18 56 -31 37 -17 53
-21 62 -12 8 8 5 10 -13 6 l-24 -5 25 13 c14 7 27 16 30 20 3 4 26 16 51 26
52 22 74 62 36 62 -28 1 -62 26 -48 35 20 11 11 34 -14 41 -14 3 -25 10 -25
15 0 5 -8 9 -17 9 -15 0 -16 2 -3 10 13 9 13 11 0 19 -9 7 -19 6 -28 -1 -7 -7
-16 -7 -22 -2 -14 15 -16 47 -2 51 6 3 12 -3 12 -12 0 -11 7 -15 23 -13 12 2
22 10 22 18 0 17 24 24 41 12 6 -4 17 -20 25 -37 18 -37 47 -42 124 -20 l57
17 -5 42 c-4 22 -9 56 -13 74 -9 46 10 42 63 -13 23 -25 45 -45 48 -45 11 0
75 47 115 84 46 42 51 72 16 86 -36 13 -42 30 -11 30 15 0 38 -9 52 -20 14
-11 36 -20 49 -20 12 0 26 -4 29 -10 12 -19 33 -10 43 18 5 15 13 36 18 46 5
13 4 17 -3 13 -6 -4 -14 0 -17 9 -3 9 -12 14 -20 11 -8 -3 -18 5 -25 20 -10
21 -14 23 -26 13 -10 -8 -13 -21 -9 -34 6 -19 5 -20 -11 -6 -17 13 -18 13 -13
-2 4 -10 1 -19 -8 -22 -9 -3 -12 -1 -9 4 3 6 2 10 -4 10 -14 0 17 57 35 64 8
3 12 10 9 16 -11 19 19 10 45 -12 14 -13 8 -5 -14 17 -33 32 -40 46 -37 72 5
56 -5 70 -44 65 -21 -3 -35 0 -35 7 0 6 11 11 25 11 27 0 34 15 10 24 -19 7
-19 20 0 39 8 8 11 17 8 20 -3 4 6 11 20 18 26 12 55 54 44 66 -4 3 -7 -1 -7
-11 0 -14 -6 -16 -34 -12 -26 4 -36 2 -40 -11 -6 -14 -9 -13 -27 6 -16 17 -24
19 -34 11 -18 -15 -88 -2 -81 15 2 7 0 17 -6 23 -5 5 -7 20 -3 32 6 20 8 20
24 6 10 -9 24 -16 32 -16 9 0 6 7 -9 18 -22 17 -22 17 -3 29 12 8 22 9 26 3 3
-5 12 -7 19 -4 8 3 17 0 22 -7 5 -9 2 -10 -9 -6 -10 4 -17 1 -17 -6 0 -18 21
-37 41 -37 12 0 15 6 11 25 -5 29 4 31 35 10 20 -14 22 -14 28 5 3 11 10 20
16 20 5 0 8 10 8 23 -1 12 2 37 6 54 l7 33 -42 -15 c-53 -19 -55 -19 -36 1 17
17 22 39 6 29 -17 -11 -58 7 -63 27 -6 23 19 68 37 68 6 0 20 10 30 21 13 16
20 19 26 9 6 -10 9 -9 13 1 8 23 27 -38 27 -89 l1 -47 25 47 c24 48 28 50 106
63 20 3 46 13 57 23 39 33 81 182 51 182 -6 0 -9 -5 -8 -11 2 -6 -2 -13 -9
-16 -6 -2 -14 10 -18 27 -5 25 -11 30 -26 25 -12 -4 -21 -1 -25 9 -3 9 -14 16
-23 16 -14 0 -14 -2 -1 -10 12 -8 11 -10 -7 -10 -31 0 -29 -22 6 -59 16 -17
24 -31 19 -31 -6 0 4 -13 23 -29 l33 -30 -27 -6 c-58 -15 -112 31 -117 100 -2
38 9 77 21 69 5 -3 9 2 9 10 0 21 -8 20 -50 -5 -23 -14 -30 -16 -21 -6 7 9 32
24 57 33 37 14 44 21 43 43 -1 59 -8 62 -76 31 -48 -22 -63 -25 -63 -14 0 8
-4 14 -9 14 -17 0 -23 -20 -11 -35 16 -19 -1 -101 -21 -98 -45 5 -66 15 -84
39 -11 14 -35 42 -52 61 -37 40 -40 45 -17 36 14 -5 15 -3 5 15 -13 25 -27 28
-34 10 -4 -9 -6 -10 -6 -1 -1 6 6 18 14 27 8 8 15 19 15 24 0 14 27 22 48 15
9 -3 28 -15 40 -27 l24 -21 16 21 c24 29 79 54 120 54 27 0 32 3 23 13 -8 10
-7 17 2 27 9 9 9 11 0 6 -8 -4 -11 2 -10 21 2 25 -5 31 -53 55 -45 22 -50 27
-30 28 23 1 23 2 5 9 -13 5 -28 3 -43 -7 -28 -18 -98 -11 -121 14 -9 9 -10 14
-3 10 6 -4 12 -2 12 3 0 6 -4 11 -10 11 -17 0 -11 29 11 51 23 23 56 18 77
-12 13 -19 38 -28 28 -10 -4 5 2 7 13 4 13 -3 20 2 24 19 9 32 9 73 0 64 -11
-10 -34 134 -27 168 5 22 8 25 16 15 17 -24 1 100 -17 127 -17 27 -46 31 -65
10 -6 -8 -19 -12 -28 -9 -10 3 -13 1 -7 -4 6 -4 11 -12 12 -18 1 -5 9 -27 17
-47 17 -40 7 -59 -19 -38 -8 7 -26 9 -40 6 -28 -7 -34 8 -7 19 16 6 16 7 -1
16 -11 7 -16 17 -12 29 6 20 -10 36 -20 20 -5 -8 -11 -7 -21 1 -7 6 -11 15 -8
20 3 5 0 9 -7 9 -6 0 -9 -8 -6 -20 4 -17 2 -18 -14 -9 -11 5 -27 8 -37 5 -9
-3 -30 3 -47 14 -32 21 -60 27 -50 10 3 -5 15 -10 25 -10 10 0 22 -9 25 -20 3
-11 11 -20 16 -20 13 0 1 -42 -15 -52 -16 -11 -28 -10 -21 2 3 5 0 7 -7 5 -8
-3 -24 8 -36 25 -13 16 -18 30 -12 30 5 0 10 -4 10 -8 0 -5 6 -9 14 -9 11 0
10 7 -4 31 -23 42 -20 61 10 61 20 0 26 6 28 27 3 27 3 27 -30 14 -43 -18 -99
-10 -91 13 4 14 3 14 -9 0 -38 -45 -88 -58 -88 -23 0 8 -6 13 -12 11 -23 -4
-18 60 6 86 30 33 27 97 -8 161 -14 28 -29 52 -33 55 -13 13 10 -55 25 -72 19
-21 9 -34 -31 -41 -16 -3 -35 -10 -43 -17 -18 -15 -32 -3 -39 30 -2 13 -10 30
-17 38 -10 13 -8 19 12 36 25 20 25 20 3 14 -13 -3 -23 -2 -23 3 0 4 -11 5
-25 2 -26 -4 -59 14 -50 28 3 4 -1 13 -9 19 -11 9 -15 5 -20 -24 -8 -40 -28
-54 -51 -35 -8 6 -22 10 -32 7 -15 -4 -14 -5 3 -6 27 -1 40 -29 17 -38 -31
-12 -48 11 -47 63 1 83 7 99 40 102 36 4 88 -14 79 -27 -3 -5 0 -13 6 -16 7
-5 10 0 7 11 -1 11 -18 26 -36 35 l-33 17 33 13 c98 39 226 37 305 -5 18 -9
34 -16 35 -15 10 3 170 -69 188 -86 8 -7 20 -14 25 -15 6 -1 46 -25 89 -53 43
-29 100 -65 125 -82 102 -66 140 -96 146 -115 3 -11 10 -20 15 -20 5 0 11 -9
15 -19 3 -11 34 -49 68 -84 69 -72 112 -126 154 -192 40 -63 58 -64 27 -2
-128 252 -346 488 -587 636 -116 71 -238 128 -377 176 -74 25 -138 49 -142 53
-23 23 16 57 213 187 115 75 209 139 209 142 0 2 -11 21 -25 43 l-25 39 -137
-91 c-76 -50 -144 -98 -151 -107 -11 -13 -12 -13 -6 -1 7 13 5 13 -9 1 -9 -7
-14 -18 -10 -24 3 -6 1 -7 -6 -3 -12 8 -201 -111 -201 -127 0 -4 -5 -5 -10 -2
-6 3 -13 0 -15 -8 -7 -16 -100 -23 -109 -8 -6 10 76 84 129 117 59 36 455 315
460 324 5 8 -39 90 -48 90 -1 0 -18 -13 -37 -28z m-235 -228 c-36 -28 -61 -36
-30 -10 17 14 35 25 40 25 6 0 1 -7 -10 -15z m89 -150 c-10 -14 -38 -39 -63
-55 -25 -17 -36 -22 -24 -11 12 11 20 22 16 25 -8 9 -54 -24 -47 -34 3 -5 -3
-6 -12 -2 -11 4 -15 2 -11 -4 7 -11 -20 -40 -42 -45 -8 -2 -26 -14 -39 -28
-13 -14 -20 -19 -16 -11 4 9 2 12 -7 9 -8 -3 -13 -11 -11 -17 1 -7 -2 -9 -9
-5 -9 5 -5 13 10 26 13 10 19 18 15 18 -9 1 26 24 36 25 3 0 11 4 19 9 10 7
12 6 6 -4 -5 -8 -3 -11 6 -8 8 3 14 10 14 17 0 19 88 82 100 70 11 -11 26 -12
23 0 -3 7 40 49 50 51 1 0 -5 -12 -14 -26z m-364 -38 c0 -2 -7 -7 -16 -10 -8
-3 -12 -2 -9 4 6 10 25 14 25 6z m-79 -49 c-6 -8 -8 -17 -4 -21 4 -4 -1 -4
-11 0 -15 6 -17 4 -11 -6 5 -9 4 -11 -3 -6 -7 4 -12 3 -12 -2 0 -5 -7 -9 -15
-9 -18 0 -16 2 27 33 38 27 45 29 29 11z m-191 -107 c-7 -4 -8 -10 -3 -13 5
-3 24 3 41 13 18 11 32 18 32 15 0 -3 -18 -16 -39 -30 -22 -13 -50 -34 -63
-46 -13 -11 -61 -43 -108 -71 -47 -28 -89 -52 -93 -55 -5 -3 -3 3 3 14 12 18
148 103 166 103 6 0 15 5 22 12 9 9 8 16 -6 32 -9 11 -12 16 -5 12 7 -4 17 2
23 13 6 13 16 18 26 14 11 -4 12 -8 4 -13z m293 -12 c3 -10 7 -10 20 1 10 7
17 11 17 8 0 -4 -27 -24 -59 -46 -51 -35 -61 -38 -71 -25 -11 12 -10 13 6 8
10 -4 16 -4 12 1 -12 13 12 34 30 28 9 -3 14 -3 10 2 -8 9 9 35 22 35 5 0 10
-6 13 -12z m7 -42 c0 -2 -26 -22 -57 -43 -80 -54 -87 -58 -79 -45 13 21 -7 13
-58 -26 -55 -41 -88 -62 -71 -45 30 31 164 121 167 113 2 -5 23 4 48 20 47 31
50 33 50 26z m-440 -41 c0 -2 -20 -16 -44 -30 -24 -14 -50 -32 -56 -40 -7 -8
-17 -15 -22 -15 -6 0 -5 7 2 15 11 13 10 14 -3 9 -19 -7 -29 -31 -16 -39 14
-9 1 -25 -21 -25 -10 0 -25 -9 -34 -21 -16 -23 -64 -60 -51 -40 8 14 -16 1
-102 -57 -30 -20 -56 -31 -64 -27 -7 5 -10 4 -5 -3 3 -6 -3 -16 -14 -22 -11
-6 -18 -15 -15 -20 6 -10 -113 -91 -137 -93 -17 -1 -23 -11 -19 -31 1 -5 -4
-4 -12 3 -12 9 -16 8 -21 -5 -4 -9 -9 -14 -12 -11 -3 3 -29 -12 -57 -34 -50
-37 -75 -49 -63 -30 12 20 187 132 196 126 6 -4 9 -1 8 7 -2 7 5 12 15 12 10
-1 16 1 13 4 -3 3 -1 11 5 18 11 14 6 18 -32 28 -21 4 -39 -3 -80 -30 -87 -59
-139 -114 -133 -140 4 -17 -2 -26 -30 -44 -40 -24 -41 -26 -24 -36 7 -5 8 -2
3 7 -5 8 -5 11 -1 7 5 -4 17 2 29 12 11 11 23 17 26 14 9 -8 -52 -52 -66 -47
-7 3 -13 0 -13 -6 0 -14 -61 -52 -72 -45 -11 7 -50 -15 -43 -25 5 -10 -60 -71
-75 -71 -5 0 -11 4 -15 9 -6 11 46 51 66 51 7 0 9 3 6 6 -7 7 6 35 28 62 8 9
30 36 49 60 19 23 63 66 98 95 35 28 65 54 68 57 44 45 92 79 106 73 11 -4 15
-2 11 4 -6 10 72 83 88 83 4 0 31 16 60 36 30 19 76 44 102 54 26 9 90 34 141
54 52 20 111 39 132 42 21 3 51 15 66 25 31 20 34 21 34 14z m204 -35 c8 -8 6
-9 -5 -5 -10 4 -20 1 -25 -6 -5 -8 -3 -10 7 -4 12 8 12 6 0 -8 -7 -10 -19 -16
-25 -15 -10 2 -85 -45 -171 -109 -16 -12 -63 -43 -102 -68 -40 -26 -73 -51
-73 -56 0 -5 -7 -9 -15 -9 -8 0 -15 -4 -15 -10 0 -16 9 -12 54 25 24 19 46 35
50 35 4 0 35 21 69 46 45 33 52 37 26 12 -67 -62 -102 -89 -169 -129 -36 -21
-90 -59 -119 -84 -29 -25 -54 -45 -56 -45 -2 0 -2 8 0 18 1 10 9 16 19 14 9
-2 19 3 22 11 3 8 27 29 55 46 27 18 47 36 44 41 -3 5 -20 -5 -37 -21 -18 -16
-36 -30 -40 -30 -5 -1 -12 -2 -17 -3 -5 0 -66 -36 -135 -80 -70 -43 -129 -76
-132 -73 -3 2 6 13 20 24 13 11 33 34 44 52 19 32 150 128 362 264 58 38 146
95 195 127 76 50 95 59 124 55 19 -2 39 -9 45 -15z m229 -55 c37 0 67 -2 67
-6 0 -12 -53 -22 -102 -20 -38 2 -48 -1 -48 -13 0 -9 -6 -16 -14 -16 -7 0 -16
-9 -19 -20 -6 -24 9 -87 23 -95 6 -4 10 -15 10 -27 0 -18 -2 -19 -17 -7 -14
12 -16 12 -8 0 5 -10 4 -12 -3 -7 -7 4 -9 17 -6 30 5 20 1 24 -27 28 -36 6
-99 -6 -144 -26 -16 -8 -37 -16 -45 -19 -11 -4 -10 -6 5 -7 31 -3 -31 -17 -90
-20 l-50 -3 40 -7 c22 -4 31 -8 19 -9 -25 -1 -84 -39 -141 -92 -22 -20 -60
-47 -82 -59 -67 -34 -104 -80 -64 -80 9 0 14 -2 11 -5 -9 -9 -58 6 -52 16 3 5
1 9 -5 9 -5 0 -13 -4 -16 -10 -3 -5 -17 -10 -30 -10 -12 0 -25 -7 -29 -15 -8
-21 -29 -19 -43 4 -11 17 -6 23 45 54 31 19 128 80 215 136 88 56 180 113 205
126 26 13 103 60 172 104 81 52 130 78 140 73 8 -4 45 -7 83 -7z m-343 -79 c0
-2 -7 -7 -16 -10 -8 -3 -12 -2 -9 4 6 10 25 14 25 6z m-40 -20 c0 -3 -15 -14
-32 -26 l-33 -22 30 26 c31 27 35 29 35 22z m-365 -54 c-18 -15 -85 -54 -85
-48 0 3 19 16 43 30 43 26 59 33 42 18z m1030 -6 c8 -8 11 -23 8 -36 -3 -13
-1 -25 7 -30 20 -12 2 -30 -31 -30 -22 0 -32 6 -39 26 -13 32 -13 43 0 24 8
-12 10 -9 10 12 0 22 -4 26 -17 22 -15 -5 -15 -4 -3 4 8 6 17 9 21 6 4 -2 10
0 14 6 8 13 14 13 30 -4z m-565 -46 c0 -5 -5 -10 -11 -10 -5 0 -7 5 -4 10 3 6
8 10 11 10 2 0 4 -4 4 -10z m319 -13 c7 -6 29 -13 49 -14 41 -2 48 -8 57 -45
l7 -26 -39 13 c-21 8 -44 14 -52 15 -17 0 -91 59 -91 72 0 12 49 2 69 -15z
m-884 3 c-3 -5 -12 -10 -18 -10 -7 0 -6 4 3 10 19 12 23 12 15 0z m574 -26
c-13 -16 -12 -16 8 -6 19 11 24 8 44 -19 22 -32 18 -49 -16 -56 -69 -17 -73
-16 -90 16 -19 37 -16 44 25 61 16 7 30 17 30 23 0 6 3 7 6 4 4 -4 1 -14 -7
-23z m224 -11 c-7 -43 -17 -53 -44 -46 -24 7 -24 23 0 30 10 2 24 16 30 29 15
35 21 30 14 -13z m241 -29 c-3 -28 -11 -41 -19 -32 -8 8 5 58 15 58 4 0 6 -12
4 -26z m-573 -33 c-6 -10 -8 -21 -6 -25 3 -3 2 -4 -2 -1 -3 3 -13 -1 -21 -8
-9 -6 -5 3 8 21 26 36 36 42 21 13z m267 -38 c15 -41 13 -69 -6 -86 -18 -15
-84 -40 -115 -42 -19 -2 -41 27 -30 39 3 3 2 6 -4 6 -17 0 -25 31 -12 46 6 8
20 14 30 14 11 0 19 5 19 10 0 6 8 10 18 10 9 1 28 7 42 15 36 21 46 18 58
-12z m345 2 c38 -5 47 -10 47 -26 0 -15 -7 -19 -34 -19 -19 0 -36 5 -38 12 -3
7 -16 13 -29 13 -14 1 -30 5 -37 9 -22 13 -13 26 16 22 15 -2 48 -7 75 -11z
m152 -20 c2 -14 -1 -25 -6 -25 -5 0 -9 14 -9 32 0 36 11 31 15 -7z m-1200 -4
c-1 -8 -7 -17 -13 -19 -8 -2 -10 3 -5 15 5 14 0 13 -28 -9 -19 -15 -33 -31
-32 -36 1 -6 -5 -8 -15 -5 -9 2 -28 -6 -42 -19 -13 -13 -28 -24 -32 -24 -5 -1
-13 -2 -19 -3 -5 0 -7 -7 -3 -13 4 -7 3 -10 -1 -5 -5 4 -17 0 -27 -10 -10 -9
-21 -14 -24 -11 -7 8 213 155 231 155 7 0 12 -7 10 -16z m868 4 c-3 -9 -8 -14
-10 -11 -3 3 -2 9 2 15 9 16 15 13 8 -4z m47 5 c0 -5 -2 -10 -4 -10 -3 0 -8 5
-11 10 -3 6 -1 10 4 10 6 0 11 -4 11 -10z m-543 -46 c16 7 17 -6 1 -23 -11
-10 -10 -11 5 -5 9 3 25 0 34 -7 12 -10 15 -10 9 -1 -5 8 2 12 24 12 l32 0
-29 -23 c-45 -37 -58 -39 -86 -7 -14 15 -23 31 -20 34 3 3 0 12 -6 20 -7 8 -9
21 -5 27 5 9 10 6 17 -10 6 -12 16 -20 24 -17z m-97 11 c0 -1 -12 -2 -26 -2
-17 0 -22 2 -13 7 10 7 39 3 39 -5z m674 -13 c-22 -5 -31 7 -14 18 9 6 17 5
22 -3 4 -7 1 -13 -8 -15z m96 -3 c0 -6 8 -5 19 1 26 13 31 13 31 -5 0 -8 -7
-15 -15 -15 -8 0 -15 -7 -15 -15 0 -8 -7 -15 -15 -15 -8 0 -15 7 -15 15 0 8
-4 15 -9 15 -5 0 -16 11 -25 24 l-16 25 30 -11 c17 -5 30 -14 30 -19z m-840 1
c-6 -11 -13 -20 -16 -20 -2 0 0 9 6 20 6 11 13 20 16 20 2 0 0 -9 -6 -20z
m955 12 c17 -12 49 -65 34 -57 -38 22 -69 47 -69 56 0 11 21 12 35 1z m-655
-6 c0 -3 -4 -8 -10 -11 -5 -3 -10 -1 -10 4 0 6 5 11 10 11 6 0 10 -2 10 -4z
m-180 -15 c0 -4 -11 -20 -25 -35 -14 -14 -22 -24 -19 -22 3 2 14 -4 24 -14 9
-9 24 -20 31 -22 12 -5 12 -9 1 -24 -7 -11 -20 -31 -30 -46 -19 -31 -32 -36
-32 -13 0 21 -36 38 -57 27 -24 -12 -95 -10 -100 3 -2 6 11 25 27 44 26 28 29
36 18 50 -11 14 -11 14 3 4 12 -10 20 -9 37 3 17 11 26 12 42 4 16 -9 20 -8
20 5 0 8 5 15 11 15 5 0 7 5 3 12 -4 6 -3 8 2 5 6 -3 16 -2 24 4 19 11 20 11
20 0z m825 -29 c-3 -3 -11 0 -18 7 -9 10 -8 11 6 5 10 -3 15 -9 12 -12z m-43
-33 c5 -3 10 -29 10 -58 1 -40 -3 -55 -18 -66 -18 -15 -18 -16 6 -13 18 2 26
-2 28 -17 3 -16 1 -17 -8 -8 -9 8 -19 9 -36 1 -26 -12 -54 3 -54 28 0 8 -5 14
-11 14 -6 0 -9 12 -7 28 2 19 9 28 26 30 24 4 28 22 12 52 -8 15 -6 20 10 25
11 3 21 12 21 18 1 7 4 3 6 -8 3 -11 10 -23 15 -26z m-148 9 c22 -13 44 -27
48 -33 9 -12 -31 -50 -61 -58 -23 -6 -79 22 -124 61 -16 15 -16 16 10 34 37
24 77 23 127 -4z m-429 2 c-3 -5 -11 -10 -16 -10 -6 0 -7 5 -4 10 3 6 11 10
16 10 6 0 7 -4 4 -10z m736 -29 c12 -16 33 -32 48 -36 23 -6 24 -8 8 -17 -22
-12 -53 12 -70 52 -10 24 -10 23 -20 -20 -5 -25 -10 -60 -9 -79 1 -43 -22 -69
-44 -50 -10 8 -13 21 -9 36 3 14 1 23 -7 23 -6 0 -4 6 7 13 13 10 16 21 11 40
-3 15 -2 27 3 27 5 0 13 9 16 20 9 29 41 25 66 -9z m-1562 5 c9 -11 6 -18 -16
-35 -15 -12 -20 -18 -10 -15 36 13 14 -8 -70 -64 -113 -75 -163 -105 -163 -98
0 3 17 17 38 30 41 27 96 72 72 59 -50 -27 -129 -87 -124 -94 3 -5 -1 -6 -9
-3 -8 3 -20 -3 -28 -13 -13 -17 -13 -17 6 -3 18 14 19 14 7 -2 -7 -9 -24 -15
-37 -13 -14 1 -23 -1 -20 -4 2 -4 -6 -13 -18 -20 -18 -11 -20 -11 -9 0 6 7 12
23 12 35 0 14 13 33 33 48 68 52 303 206 313 206 6 0 17 -6 23 -14z m1101 -36
c0 -5 -5 -10 -11 -10 -5 0 -7 5 -4 10 3 6 8 10 11 10 2 0 4 -4 4 -10z m-22
-30 c72 -37 87 -50 96 -78 4 -12 11 -22 15 -22 5 0 9 -11 9 -25 0 -18 -10 -31
-37 -46 -20 -11 -49 -38 -66 -59 -16 -22 -33 -39 -37 -40 -5 0 -14 15 -22 33
-13 28 -14 29 -15 9 -1 -13 -5 -20 -11 -17 -5 3 -10 1 -10 -5 0 -6 -5 -8 -12
-4 -8 5 -6 10 5 19 18 13 6 42 -13 30 -8 -5 -11 -1 -8 11 2 11 13 20 24 22 12
2 26 14 33 28 14 33 14 35 -6 27 -13 -5 -15 -2 -10 11 5 13 3 16 -11 12 -13
-4 -24 8 -45 49 l-27 54 32 10 c50 14 54 13 116 -19z m473 -40 c-6 -3 -10 -16
-11 -28 -1 -67 -1 -67 -9 -52 -10 18 -2 90 9 90 5 0 6 10 4 23 -4 21 -4 20 6
-2 7 -16 7 -27 1 -31z m-841 19 c0 -14 -17 -10 -23 5 -4 10 -1 13 9 9 7 -3 14
-9 14 -14z m950 2 c0 -13 -16 -27 -42 -38 -34 -15 -35 -11 -5 19 20 22 47 32
47 19z m-1220 -26 c0 -8 -1 -17 -2 -19 -2 -1 14 -22 35 -45 44 -48 50 -91 14
-91 -13 0 -28 5 -35 12 -9 9 -12 9 -12 -1 0 -7 -4 -9 -10 -6 -5 3 -10 1 -10
-5 0 -6 -4 -9 -9 -6 -4 3 -19 -3 -31 -14 -17 -15 -20 -23 -12 -33 9 -11 6 -13
-18 -9 -17 2 -32 8 -35 12 -9 15 18 165 33 183 9 9 29 21 46 26 44 13 46 13
46 -4z m339 -22 c10 -21 31 -48 46 -61 21 -19 24 -26 15 -38 -10 -12 -7 -14
19 -14 41 0 41 -24 -1 -44 -34 -18 -78 -21 -78 -7 0 5 -9 7 -20 4 -33 -9 -23
5 18 24 25 12 32 19 20 21 -9 2 -19 11 -22 20 -3 10 -21 40 -40 69 -36 55 -36
63 0 63 17 0 29 -11 43 -37z m-111 -13 c7 -11 20 -20 30 -20 27 0 43 -15 36
-33 -9 -24 -28 -21 -61 9 -15 14 -22 23 -15 19 6 -3 12 -1 12 5 0 7 -9 14 -20
17 -22 6 -28 23 -7 23 7 0 18 -9 25 -20z m269 1 c9 -11 20 -18 25 -15 4 3 8
-9 8 -27 0 -26 3 -30 12 -21 16 16 28 15 28 -2 0 -18 -51 -27 -90 -16 -17 5
-37 7 -44 4 -7 -3 -18 7 -26 20 -29 54 47 103 87 57z m438 -37 c8 3 15 1 15
-4 0 -6 7 -10 15 -10 22 0 18 -15 -10 -47 -18 -20 -23 -22 -18 -9 4 13 3 17
-5 12 -7 -4 -12 -3 -12 3 0 5 8 12 18 14 9 3 4 5 -13 6 -41 2 -63 16 -38 25
17 7 17 8 0 17 -9 6 -14 15 -11 21 5 7 14 3 26 -11 10 -14 24 -21 33 -17z
m410 13 c16 -13 15 -14 -13 -9 -18 2 -32 8 -32 13 0 13 24 11 45 -4z m-1615
-21 c0 -3 -4 -8 -10 -11 -5 -3 -10 -1 -10 4 0 6 5 11 10 11 6 0 10 -2 10 -4z
m1924 -33 c4 -16 9 -35 11 -43 3 -11 -4 -16 -26 -17 -24 -2 -30 1 -27 15 2 9
8 17 15 17 6 0 15 4 20 8 4 5 -3 7 -17 6 -14 -1 -41 -1 -60 0 -33 2 -34 3 -11
12 14 5 33 11 43 12 9 2 21 6 24 10 13 13 22 7 28 -20z m-1879 7 c-3 -5 -13
-10 -21 -10 -8 0 -14 -6 -15 -12 0 -10 -2 -10 -6 0 -2 6 -10 9 -16 6 -8 -5 -9
-4 -2 4 9 9 31 17 58 21 5 0 5 -3 2 -9z m446 -41 c7 -14 6 -19 -2 -19 -7 0
-10 -2 -7 -5 8 -9 38 6 32 16 -3 5 2 6 10 3 22 -8 31 -45 15 -55 -12 -7 -12
-9 0 -9 9 0 6 -7 -9 -20 -13 -11 -29 -20 -37 -20 -7 0 -13 -9 -13 -19 0 -28
-21 -37 -37 -16 -7 11 -13 14 -13 8 0 -7 8 -19 17 -28 12 -13 14 -21 7 -33
-19 -29 -31 -23 -43 23 -19 76 3 150 42 140 l22 -5 -22 11 c-26 14 -34 30 -26
58 5 19 6 19 29 4 14 -9 29 -24 35 -34z m839 25 c8 -8 15 -26 16 -40 2 -21 -1
-24 -32 -24 -29 0 -34 3 -34 24 0 53 24 72 50 40z m452 -36 c25 -25 31 -45 16
-54 -9 -6 -78 63 -78 78 0 14 39 -1 62 -24z m-397 2 c-12 -13 -22 -17 -28 -11
-13 13 1 31 25 31 21 0 21 -1 3 -20z m28 -20 c-3 -11 -9 -20 -14 -20 -10 0
-12 24 -2 33 13 13 21 7 16 -13z m27 -7 c0 -21 -3 -24 -9 -14 -5 8 -7 20 -4
28 8 21 13 15 13 -14z m-670 3 c0 -3 -4 -8 -10 -11 -5 -3 -10 -1 -10 4 0 6 5
11 10 11 6 0 10 -2 10 -4z m-1340 -11 c0 -2 -10 -9 -22 -15 -22 -11 -22 -10
-4 4 21 17 26 19 26 11z m2040 -15 c0 -5 -5 -10 -11 -10 -5 0 -7 5 -4 10 3 6
8 10 11 10 2 0 4 -4 4 -10z m228 -6 c4 -6 18 -18 32 -27 l25 -17 -30 6 c-19 3
-41 -1 -60 -10 -16 -9 -36 -16 -43 -16 -17 0 -54 -22 -68 -40 -10 -12 -14 -12
-28 -1 -9 7 -16 20 -16 28 0 7 -7 16 -15 19 -28 11 -16 41 23 58 41 18 168 18
180 0z m-1562 -23 c11 1 45 1 76 1 47 -2 56 -5 52 -17 -4 -10 0 -16 12 -17 11
0 24 -2 29 -3 6 -2 25 -3 43 -4 29 -1 32 -4 27 -21 -5 -14 -2 -20 9 -20 9 0
16 -6 16 -14 0 -23 -82 -32 -120 -13 -16 9 -27 11 -24 5 4 -6 1 -9 -7 -6 -8 3
-13 13 -12 22 1 16 -1 16 -20 -1 -27 -24 -124 -23 -158 1 l-22 15 38 34 c24
22 33 37 26 41 -6 4 -11 13 -11 19 0 7 7 4 14 -6 7 -9 22 -16 32 -16z m441 -5
c-10 -26 -25 -18 -19 10 3 17 8 22 15 15 5 -5 7 -17 4 -25z m499 22 c5 -7 3
-8 -6 -3 -9 5 -10 2 -6 -12 4 -13 2 -20 -8 -20 -22 0 -28 25 -8 36 21 13 20
13 28 -1z m-1193 -28 c3 -11 1 -20 -4 -20 -5 0 -9 5 -9 10 0 6 -7 10 -16 10
-8 0 -12 5 -9 10 10 17 32 11 38 -10z m990 7 c-2 -4 6 -11 17 -17 21 -10 27
-30 10 -30 -16 0 -11 -47 6 -54 10 -4 13 -13 9 -26 -4 -13 -2 -20 6 -20 24 0
-1 -13 -39 -20 -36 -6 -41 -4 -56 21 -21 36 -21 76 2 82 13 3 8 8 -18 20 -30
14 -33 22 -8 18 5 0 13 8 20 19 11 17 57 23 51 7z m-1600 -29 c-13 -12 -26
-19 -29 -15 -4 4 1 14 12 22 29 22 41 18 17 -7z m1264 -20 c-3 -8 -6 -5 -6 6
-1 11 2 17 5 13 3 -3 4 -12 1 -19z m762 -20 c13 -9 21 -20 19 -25 -2 -4 9 -20
24 -35 27 -25 33 -26 28 -3 -1 6 12 -3 29 -19 34 -32 39 -46 17 -46 -8 0 -18
9 -21 20 -11 33 -24 12 -19 -29 3 -28 0 -40 -10 -44 -18 -7 -46 17 -46 39 0 8
-6 14 -12 14 -15 -1 -48 -24 -48 -34 0 -12 -25 -33 -47 -40 -16 -5 -25 -2 -33
13 -6 11 -21 32 -34 46 -19 21 -22 31 -16 63 3 21 11 46 17 57 10 18 14 17 53
-23 47 -47 50 -48 50 -27 0 8 -5 14 -12 13 -11 -3 -20 46 -13 69 5 16 45 12
74 -9z m400 -34 c13 -16 21 -41 21 -63 l0 -36 -25 27 c-14 15 -25 31 -25 36 0
19 -23 31 -41 22 -11 -7 -20 -7 -24 0 -3 5 -1 10 5 10 6 0 9 4 6 9 -4 5 0 12
6 14 30 12 58 5 77 -19z m-1091 -16 c27 -27 5 -106 -35 -131 -7 -4 -13 -15
-13 -22 0 -12 -22 -21 -32 -13 -2 1 -13 -4 -26 -11 -25 -13 -82 -6 -82 10 0 6
18 34 40 64 45 60 45 62 28 68 -7 2 -6 3 3 2 10 -2 28 8 40 21 26 25 59 30 77
12z m-445 -39 c42 -11 42 -11 25 -41 -18 -32 -39 -47 -65 -48 -12 0 -34 -13
-50 -28 -15 -15 -46 -36 -68 -46 -22 -10 -48 -23 -57 -28 -33 -17 -20 22 20
58 75 69 82 77 82 92 0 23 30 52 54 52 12 0 38 -5 59 -11z m1492 1 c3 -5 1
-10 -4 -10 -6 0 -11 5 -11 10 0 6 2 10 4 10 3 0 8 -4 11 -10z m-1882 -15 c-3
-9 -8 -14 -10 -11 -3 3 -2 9 2 15 9 16 15 13 8 -4z m591 -7 c-8 -12 10 -10 23
3 17 17 24 -31 10 -72 -11 -32 -15 -35 -36 -28 -12 5 -25 18 -28 29 -3 11 -10
20 -17 20 -6 0 -4 5 4 10 13 8 12 10 -2 10 -10 0 -18 7 -18 16 0 10 6 14 15
10 8 -3 15 -2 15 2 0 4 9 8 19 8 11 0 17 -4 15 -8z m654 -31 c2 -15 12 -32 23
-37 26 -15 25 -56 -2 -63 -27 -7 -20 -18 37 -56 l47 -30 -27 -11 c-15 -5 -33
-10 -40 -10 -8 0 -16 -8 -19 -19 -4 -19 -78 -38 -98 -25 -5 3 -16 1 -23 -5
-10 -8 -16 -8 -25 3 -10 11 -7 25 13 65 28 55 33 72 14 53 -7 -7 -15 -12 -19
-12 -10 0 -29 58 -29 86 0 13 -5 24 -11 24 -5 0 -7 5 -4 10 3 6 12 10 20 10 8
0 31 11 52 25 49 34 87 30 91 -8z m982 23 c-19 -13 -30 -13 -30 0 0 6 10 10
23 10 18 0 19 -2 7 -10z m-2029 -63 c-13 -13 -26 -3 -16 12 3 6 11 8 17 5 6
-4 6 -10 -1 -17z m-143 -4 c2 -8 -5 -13 -17 -13 -12 0 -21 -6 -21 -15 0 -20
-7 -19 -31 4 -20 18 -20 19 -2 30 23 14 65 10 71 -6z m472 -6 c0 -11 3 -18 6
-14 7 7 64 -42 64 -55 0 -5 -5 -6 -11 -3 -12 8 -49 -23 -49 -42 0 -7 -5 -13
-11 -13 -6 0 -9 9 -6 20 3 11 1 18 -3 15 -5 -3 -10 7 -12 22 l-3 28 -22 -22
c-26 -26 -28 -24 -11 13 11 23 10 28 -7 40 -18 14 -18 14 2 14 12 0 24 4 27 8
10 17 36 8 36 -11z m1280 -30 c0 -5 -7 -4 -15 3 -8 7 -15 20 -15 29 1 13 3 13
15 -3 8 -11 15 -24 15 -29z m225 33 c3 -5 -1 -10 -10 -10 -9 0 -13 5 -10 10 3
6 8 10 10 10 2 0 7 -4 10 -10z m-961 -69 c14 -15 15 -21 6 -21 -16 0 -80 59
-80 73 0 10 48 -23 74 -52z m-381 -10 c-6 -24 -32 -36 -47 -21 -7 7 -5 10 7
10 9 0 17 7 17 15 0 8 6 15 14 15 9 0 12 -7 9 -19z m1282 -1 c3 -5 1 -10 -4
-10 -6 0 -11 5 -11 10 0 6 2 10 4 10 3 0 8 -4 11 -10z m-325 -7 c1 -4 3 -25 6
-45 5 -34 3 -37 -31 -54 -36 -17 -38 -17 -48 2 -29 50 -10 99 39 102 19 2 34
-1 34 -5z m-1548 -43 c-3 -21 -10 -30 -23 -30 -24 0 -25 27 -3 51 22 24 32 17
26 -21z m882 32 c3 -5 -2 -22 -11 -38 -21 -40 -20 -100 2 -124 10 -11 14 -20
8 -20 -5 0 -24 20 -42 45 -18 26 -43 48 -58 51 l-26 7 38 33 c20 19 34 34 31
34 -4 0 -4 5 -1 10 7 12 52 13 59 2z m52 -32 c8 0 17 -7 20 -15 4 -8 10 -12
15 -9 14 8 11 -13 -4 -28 -8 -7 -12 -20 -9 -28 3 -8 2 -12 -2 -8 -4 3 -9 12
-10 20 -6 26 -25 66 -35 73 -6 3 -11 12 -11 18 0 7 5 4 11 -5 5 -10 17 -18 25
-18z m804 -13 c0 -5 -4 -5 -10 -2 -5 3 -10 14 -10 23 0 15 2 15 10 2 5 -8 10
-19 10 -23z m-1678 -13 c-2 -10 -4 -27 -5 -36 -1 -10 -4 -18 -8 -18 -9 0 -20
60 -13 72 10 15 29 2 26 -18z m1773 -24 c9 -16 13 -31 10 -31 -3 -1 -8 -2 -12
-3 -5 -1 -18 -7 -29 -14 -21 -11 -21 -10 -14 22 7 34 18 56 25 56 3 0 11 -13
20 -30z m-1689 -12 c3 -5 4 -12 1 -15 -10 -9 -42 6 -54 26 -12 19 -11 19 17 9
17 -5 33 -14 36 -20z m244 -18 c6 -19 10 -41 10 -49 0 -21 -48 -61 -74 -61
-12 0 -32 -9 -45 -21 -12 -12 -24 -19 -27 -17 -8 8 -21 127 -14 138 11 18 84
49 113 47 22 -2 29 -9 37 -37z m1538 5 c-3 -3 -9 2 -12 12 -6 14 -5 15 5 6 7
-7 10 -15 7 -18z m-1183 5 c-3 -5 -14 -10 -23 -10 -15 0 -15 2 -2 10 20 13 33
13 25 0z m-206 -25 c23 -8 39 -10 36 -5 -7 12 9 11 45 0 14 -4 20 -8 13 -9 -7
-1 -10 -8 -7 -16 4 -8 -6 -27 -20 -43 -27 -28 -27 -28 -94 -17 -37 6 -66 14
-64 18 1 4 2 13 2 21 0 12 36 66 44 66 2 0 22 -7 45 -15z m1021 5 c0 -5 -4
-10 -9 -10 -5 0 -18 -3 -28 -6 -16 -5 -16 -4 1 10 23 18 36 20 36 6z m11 -41
c-12 -12 -25 -18 -28 -15 -9 9 18 36 35 36 12 0 11 -5 -7 -21z m-757 -5 c19
-18 21 -44 5 -44 -14 0 -38 30 -39 48 0 17 15 15 34 -4z m192 -9 c-3 -21 -13
-28 -27 -19 -9 5 -7 11 6 21 23 16 24 16 21 -2z m-792 -29 c-3 -14 -10 -26
-15 -26 -5 0 -9 -12 -9 -26 0 -14 -7 -32 -15 -40 -8 -8 -18 -21 -22 -28 -5 -7
-21 -16 -36 -20 -25 -6 -29 -3 -38 24 -6 16 -15 30 -21 30 -5 0 -8 9 -6 20 2
12 6 19 10 18 3 -2 17 7 30 18 27 25 61 44 97 54 32 9 33 8 25 -24z m1040 14
c16 -6 27 -6 31 1 12 19 21 0 17 -36 -4 -33 -6 -35 -21 -21 -22 20 -27 20 -34
2 -4 -11 -1 -13 10 -9 12 5 10 -2 -7 -25 -13 -18 -28 -32 -32 -32 -5 0 -7 -4
-4 -9 7 -11 -52 -26 -62 -17 -3 4 -8 36 -10 71 l-4 64 33 10 c45 12 53 13 83
1z m-521 -60 c3 -11 12 -20 21 -20 9 0 16 -4 16 -9 0 -6 16 -11 36 -13 32 -3
38 -8 49 -40 16 -47 10 -52 -72 -68 -74 -15 -88 -11 -97 27 -4 15 -17 38 -28
50 l-21 23 39 35 c46 40 50 41 57 15z m-335 -17 c11 -15 10 -20 -4 -30 -9 -6
-13 -17 -9 -23 5 -8 -1 -11 -16 -10 -40 4 -49 1 -49 -15 0 -8 -4 -15 -10 -15
-5 0 -10 5 -10 11 0 6 -7 8 -16 5 -8 -3 -12 -2 -9 4 3 6 12 10 20 10 18 0 26
27 19 64 -5 28 -4 29 33 23 21 -4 44 -14 51 -24z m583 0 c1 -16 2 -45 4 -65 2
-21 -1 -38 -6 -38 -5 0 -10 16 -11 35 -1 19 -2 49 -3 65 -1 17 2 30 7 30 4 0
8 -12 9 -27z m1073 -39 c7 -18 -33 -18 -56 0 -13 9 -14 16 -6 24 13 13 54 -3
62 -24z m-1004 -46 c0 -10 4 -17 9 -13 5 3 13 0 16 -6 10 -15 -14 -35 -50 -42
-16 -4 -25 -4 -20 -2 6 3 10 33 9 67 -1 61 -1 61 18 39 10 -13 18 -32 18 -43z
m-459 30 c13 -20 -3 -28 -62 -33 -30 -3 -48 -3 -41 1 6 3 9 10 6 15 -3 6 -3
16 -1 23 7 17 87 12 98 -6z m-531 -18 c0 -5 -2 -10 -4 -10 -3 0 -8 5 -11 10
-3 6 -1 10 4 10 6 0 11 -4 11 -10z m587 -7 c2 -31 12 -65 24 -79 15 -18 -5
-44 -35 -44 -18 0 -21 5 -19 37 1 21 2 53 2 71 1 33 26 47 28 15z m488 7 c10
-16 -25 -24 -38 -10 -9 10 -9 11 1 6 6 -4 12 -2 12 3 0 14 17 14 25 1z m815
-5 c7 -8 19 -15 26 -15 8 0 14 -10 14 -25 0 -27 -45 -75 -71 -75 -28 0 -56 93
-37 118 14 17 53 15 68 -3z m-200 -13 c8 -4 16 -13 18 -20 2 -10 -2 -10 -20 0
-13 7 -26 11 -30 10 -5 -1 -8 3 -8 8 0 11 17 12 40 2z m-372 -64 c9 -55 1 -84
-29 -99 -20 -11 -82 -39 -85 -39 -1 0 -12 15 -23 34 -24 38 -19 70 9 61 19 -6
50 18 50 40 0 14 46 55 61 55 4 0 12 -24 17 -52z m422 6 c-7 -7 -20 -13 -29
-13 -13 1 -12 2 2 6 12 3 16 10 13 20 -9 22 5 39 16 19 6 -11 6 -22 -2 -32z
m-1255 -32 c2 -7 1 -11 -4 -8 -5 3 -11 -1 -15 -9 -3 -8 -1 -15 4 -15 6 0 10
-6 10 -14 0 -8 5 -16 12 -18 8 -3 3 -14 -14 -31 -24 -24 -31 -25 -84 -20 -63
6 -77 16 -68 48 4 16 3 17 -5 5 -9 -12 -11 -10 -11 10 0 16 16 42 42 71 l43
46 42 -26 c24 -14 45 -32 48 -39z m-385 25 c-1 -7 -22 -35 -48 -63 -41 -45
-51 -51 -78 -47 -17 3 -44 15 -60 28 -26 21 -27 23 -11 39 9 10 15 21 12 26
-9 14 19 28 75 37 58 10 110 0 110 -20z m166 -23 c38 -7 49 -15 33 -25 -7 -4
-14 -16 -14 -26 0 -10 -10 -31 -22 -46 -20 -26 -28 -28 -88 -29 -74 -1 -91 8
-79 43 4 13 8 27 9 31 0 4 25 26 55 49 48 36 55 39 66 24 7 -9 24 -18 40 -21z
m1310 28 c15 -10 11 -52 -6 -62 -20 -12 -30 -3 -30 29 0 38 12 49 36 33z m99
-3 c4 -6 17 -14 29 -19 21 -9 21 -9 0 -9 -11 -1 -29 8 -39 19 -10 11 -13 20
-7 20 6 0 14 -5 17 -11z m-1825 -9 c0 -5 -4 -10 -10 -10 -5 0 -10 5 -10 10 0
6 5 10 10 10 6 0 10 -4 10 -10z m905 -20 c-3 -5 -2 -10 4 -10 5 0 13 5 16 10
11 18 25 10 25 -15 0 -18 7 -28 24 -34 26 -10 38 -33 30 -55 -9 -22 -83 -49
-144 -51 -30 -1 -60 -3 -67 -4 -7 0 6 -20 28 -43 23 -24 45 -53 49 -64 19 -48
-20 -103 -72 -104 -28 0 -37 13 -18 25 15 9 2 25 -20 25 -24 0 -36 20 -19 31
8 5 27 9 44 9 21 0 26 3 18 11 -15 15 -93 1 -100 -17 -3 -8 -18 -14 -34 -14
-17 0 -41 -7 -54 -16 -24 -16 -51 -11 -40 7 14 21 -19 7 -37 -17 l-21 -26 -14
31 -15 30 -22 -26 -23 -27 -23 22 c-13 12 -32 22 -42 22 -24 0 -59 36 -52 54
3 9 -3 17 -17 21 -22 7 -22 8 -3 22 21 16 64 36 104 48 20 6 23 5 13 -6 -20
-21 -15 -36 13 -42 16 -3 24 0 21 7 -3 7 1 25 8 41 l13 30 1 -36 c1 -21 -5
-42 -14 -49 -12 -10 -12 -16 -3 -34 12 -21 12 -20 18 7 4 21 18 35 53 54 l48
27 20 -21 c12 -11 22 -32 22 -46 2 -27 5 -26 52 9 17 12 44 26 60 30 l30 8
-30 6 c-27 5 -31 10 -36 50 -8 57 4 71 67 77 27 3 55 10 61 15 9 7 21 5 39 -7
15 -9 23 -11 19 -5 -6 10 -1 11 21 7 29 -7 29 -7 7 9 -24 17 -30 34 -12 34 5
0 7 -4 4 -10z m-25 -20 c0 -5 -2 -10 -4 -10 -3 0 -8 5 -11 10 -3 6 -1 10 4 10
6 0 11 -4 11 -10z m-856 -106 c27 -33 33 -54 16 -54 -5 0 -10 5 -10 10 0 10
-20 20 -63 34 -12 4 -15 10 -10 18 4 7 8 16 9 21 1 4 2 9 3 12 2 10 28 -9 55
-41z m1832 10 c39 0 53 4 50 13 -4 9 1 10 20 3 28 -11 84 -39 84 -43 0 -1 -18
-2 -39 -2 -31 0 -37 2 -29 12 8 10 6 13 -6 13 -11 0 -16 -9 -16 -31 0 -24 -4
-30 -15 -25 -8 3 -15 0 -15 -7 0 -7 -20 -33 -45 -57 l-45 -44 -22 21 c-13 11
-33 26 -46 32 -12 7 -20 16 -17 21 3 5 -4 15 -16 24 -22 15 -18 36 6 36 26 0
85 34 86 49 1 14 2 14 5 1 4 -12 19 -16 60 -16z m-1702 -59 c-4 -8 -8 -15 -10
-15 -2 0 -4 7 -4 15 0 8 4 15 10 15 5 0 7 -7 4 -15z m1372 -23 c6 -4 10 -15 8
-24 -3 -21 12 -24 19 -5 3 7 6 4 6 -6 1 -10 6 -15 11 -12 11 7 12 0 4 -32 -4
-13 -13 -23 -20 -23 -10 0 -13 -7 -8 -25 5 -20 2 -25 -12 -25 -32 0 -64 12
-58 21 3 5 -4 9 -15 9 -14 0 -19 6 -18 20 1 11 5 20 9 20 4 0 8 14 8 30 0 19
5 30 14 30 8 0 16 7 20 15 6 16 15 19 32 7z m-1446 -36 c0 -2 -7 -7 -16 -10
-8 -3 -12 -2 -9 4 6 10 25 14 25 6z m1684 -51 c16 -12 18 -19 8 -39 -16 -35
-112 -49 -112 -16 0 4 13 7 29 6 22 -2 27 2 23 16 -11 43 16 60 52 33z m243
-37 c17 -28 13 -57 -8 -69 -19 -10 -25 -9 -36 6 -8 12 -24 18 -47 17 -33 -1
-106 22 -106 33 0 3 27 4 60 3 36 -1 65 3 72 10 16 16 55 15 65 0z m-1931 -49
c10 -11 12 -19 6 -19 -7 0 -12 -7 -12 -15 0 -9 -9 -15 -25 -15 -14 0 -25 -4
-25 -9 0 -5 -9 -11 -21 -14 -19 -5 -20 -2 -15 21 3 15 9 41 12 59 6 29 8 31
34 21 16 -5 36 -18 46 -29z m619 31 c3 -5 1 -10 -4 -10 -6 0 -11 5 -11 10 0 6
2 10 4 10 3 0 8 -4 11 -10z m499 -5 c-7 -16 -24 -21 -24 -6 0 8 7 13 27 20 1
1 0 -6 -3 -14z m-826 -13 c-9 -2 -21 -16 -27 -33 -12 -34 -26 -38 -34 -9 -3
12 0 20 7 20 7 0 21 9 31 20 10 11 23 16 29 12 7 -4 5 -8 -6 -10z m615 -23 c7
-25 3 -24 -17 6 -13 19 -13 23 -2 19 8 -3 16 -14 19 -25z m804 -33 c-2 -6 -9
-1 -16 12 -6 12 -9 28 -5 34 8 13 27 -28 21 -46z m118 23 c4 -6 13 -8 21 -5 8
3 11 0 7 -10 -7 -18 -49 -11 -73 12 -12 12 -11 14 12 14 15 0 30 -5 33 -11z
m206 -16 c-8 -16 -5 -25 15 -46 13 -14 24 -29 24 -33 0 -4 10 -18 21 -30 l21
-23 -28 -42 c-24 -35 -35 -42 -62 -43 -19 -1 -38 5 -44 12 -6 6 -15 12 -20 12
-18 0 -78 65 -81 90 -3 19 3 28 32 43 20 11 45 28 57 38 15 14 23 16 32 7 8
-8 10 -5 6 13 -5 19 -3 21 5 9 8 -12 11 -12 17 3 3 10 9 16 11 13 3 -2 0 -13
-6 -23z m-911 2 c0 -8 -7 -15 -15 -15 -8 0 -15 7 -15 15 0 8 7 15 15 15 8 0
15 -7 15 -15z m287 9 c-3 -3 -12 -4 -19 -1 -8 3 -5 6 6 6 11 1 17 -2 13 -5z
m-741 -36 c4 4 4 1 0 -6 -4 -7 -2 -20 6 -29 12 -14 8 -15 -37 -10 -28 3 -59 8
-70 11 -11 2 -24 5 -29 5 -5 1 6 14 24 30 l33 29 33 -18 c18 -10 35 -16 40
-12z m1079 22 c3 -5 -1 -10 -9 -10 -9 0 -16 5 -16 10 0 6 4 10 9 10 6 0 13 -4
16 -10z m-325 -64 c-12 -13 -40 1 -40 19 0 9 6 22 13 30 10 11 14 9 24 -13 6
-15 8 -31 3 -36z m-1106 45 c9 -14 -53 -36 -66 -23 -8 8 -5 14 13 21 31 13 46
13 53 2z m201 -1 c3 -5 1 -10 -4 -10 -6 0 -11 5 -11 10 0 6 2 10 4 10 3 0 8
-4 11 -10z m549 -5 c6 -16 -5 -23 -41 -30 -10 -2 -18 -4 -18 -5 0 -9 -38 -5
-52 5 -17 13 -16 14 12 25 16 6 37 9 47 7 10 -3 21 -1 24 4 8 14 21 11 28 -6z
m-724 -35 c-19 -24 -36 -37 -45 -33 -24 9 -17 30 18 51 51 32 62 26 27 -18z
m799 12 c11 -20 0 -88 -14 -85 -16 3 -34 80 -22 92 16 16 25 14 36 -7z m-1201
-33 c-20 -13 -38 -11 -38 5 0 9 8 12 26 8 19 -3 22 -7 12 -13z m522 1 c0 -5
-2 -10 -4 -10 -3 0 -8 5 -11 10 -3 6 -1 10 4 10 6 0 11 -4 11 -10z m430 -151
c0 -16 10 -33 30 -47 17 -13 30 -18 30 -12 0 5 7 10 15 10 8 0 15 7 15 16 0
14 3 14 15 4 17 -14 18 -20 6 -39 -8 -12 -12 -12 -25 -2 -11 9 -16 10 -16 2 0
-6 4 -11 10 -11 5 0 7 -7 4 -15 -7 -18 0 -19 28 -4 16 9 19 8 16 -3 -3 -7 -18
-15 -34 -16 -16 -2 -38 -11 -48 -20 -12 -11 -20 -13 -23 -6 -2 6 -20 -5 -40
-24 -39 -37 -50 -33 -33 12 6 17 14 25 22 20 7 -4 -2 8 -20 26 -22 22 -32 40
-28 52 4 16 2 17 -10 7 -20 -17 -28 -5 -12 20 8 13 19 19 29 16 11 -4 18 1 22
15 3 11 1 18 -4 14 -5 -3 -9 -1 -9 3 0 5 10 13 23 18 26 12 37 2 37 -36z m914
32 c9 -14 -22 -34 -41 -26 -17 6 -17 7 1 21 23 16 33 18 40 5z m-864 -37 c0
-8 -5 -14 -11 -14 -5 0 -8 4 -4 9 3 5 1 12 -5 16 -5 3 -10 11 -10 17 0 7 6 6
15 -2 8 -7 15 -19 15 -26z m962 19 c30 -35 29 -61 -5 -78 -43 -22 -54 -19 -73
16 -16 31 -15 32 12 55 32 29 46 30 66 7z m-356 -3 c15 -6 31 -7 38 -2 19 15
61 -2 64 -26 2 -12 -2 -22 -8 -22 -18 0 -80 -68 -80 -88 0 -10 -8 -26 -17 -34
-19 -17 -104 -61 -106 -56 -39 80 -73 137 -92 150 -6 5 -6 8 2 8 6 0 14 8 17
18 15 44 121 75 182 52z m-1288 -33 c-7 -14 -13 -17 -16 -9 -6 19 6 44 18 37
7 -4 6 -14 -2 -28z m189 -21 c-4 -13 -57 -16 -77 -5 -13 7 -12 8 2 9 10 0 22
9 28 21 11 20 12 20 31 3 11 -10 18 -22 16 -28z m-492 14 c3 -5 1 -10 -4 -10
-6 0 -11 5 -11 10 0 6 2 10 4 10 3 0 8 -4 11 -10z m212 -12 c-3 -8 -6 -5 -6 6
-1 11 2 17 5 13 3 -3 4 -12 1 -19z m1606 -30 c43 -49 47 -71 15 -66 -18 2 -23
9 -21 31 2 27 2 27 -22 10 -14 -10 -25 -24 -25 -30 0 -16 -20 -17 -20 -2 0 21
-26 37 -43 27 -23 -13 -23 20 1 50 29 37 72 29 115 -20z m370 22 c-3 -12 -8
-19 -11 -16 -5 6 5 36 12 36 2 0 2 -9 -1 -20z m47 -7 c0 -10 -4 -14 -8 -8 -4
6 -11 13 -16 18 -5 4 -2 7 7 7 10 0 17 -8 17 -17z m-157 -27 c4 -9 -2 -17 -14
-21 -17 -6 -24 -17 -20 -38 1 -4 -8 -3 -20 4 -17 9 -19 13 -8 20 8 5 9 9 3 9
-18 0 -25 -12 -14 -25 6 -7 7 -20 4 -30 -5 -13 -14 -15 -37 -11 -38 8 -45 15
-27 26 9 5 19 5 27 -2 10 -8 13 -5 13 13 0 16 12 32 33 46 38 26 53 28 60 9z
m-1668 -36 c3 -6 -1 -7 -9 -4 -18 7 -21 14 -7 14 6 0 13 -4 16 -10z m131 -40
c-3 -41 -16 -52 -41 -34 -11 8 -19 17 -17 19 9 18 -2 36 -25 42 -27 7 -26 8
12 13 55 8 74 -3 71 -40z m708 16 c23 -9 58 -32 77 -52 19 -19 26 -32 17 -29
-25 10 -23 -12 2 -25 19 -10 39 -75 27 -87 -12 -11 -57 -11 -57 1 0 23 -44 49
-92 52 -52 4 -54 3 -37 -27 9 -18 8 -19 -9 -10 -12 7 -18 18 -16 29 4 11 -5
25 -25 40 -27 20 -31 29 -31 71 0 26 2 50 4 52 10 9 101 0 140 -15z m-609 -25
c-5 -15 -1 -18 21 -13 25 4 25 3 14 -18 -11 -20 -10 -25 4 -36 14 -10 11 -12
-23 -16 -27 -2 -42 1 -45 9 -3 7 -1 13 5 13 6 0 7 5 4 11 -4 5 -1 23 5 40 14
32 25 40 15 10z m125 5 c0 -2 -8 -10 -17 -17 -16 -13 -17 -12 -4 4 13 16 21
21 21 13z m858 -55 c11 -7 11 -9 -1 -14 -16 -6 -27 0 -27 15 0 10 11 10 28 -1z
m-119 -63 c14 -23 32 -88 25 -88 -3 0 -16 8 -30 17 -33 21 -49 60 -33 79 16
19 22 18 38 -8z m-884 -78 c-3 -5 -11 -10 -16 -10 -6 0 -7 5 -4 10 3 6 11 10
16 10 6 0 7 -4 4 -10z m773 -2 c-3 -7 -13 -15 -24 -17 -16 -3 -17 -1 -5 13 16
19 34 21 29 4z m229 -109 c-4 -14 0 -19 14 -19 21 0 22 -1 13 -24 -8 -21 -24
-20 -25 2 -1 16 -2 16 -6 0 -5 -20 -24 -25 -20 -6 1 8 -8 12 -26 10 -27 -3
-28 -2 -16 20 20 39 29 46 50 41 14 -4 19 -12 16 -24z"/>
<path d="M2140 4070 c-6 -11 -8 -20 -6 -20 3 0 10 9 16 20 6 11 8 20 6 20 -3
0 -10 -9 -16 -20z"/>
<path d="M1697 3994 c-11 -11 3 -24 18 -18 8 4 12 10 9 15 -6 11 -18 12 -27 3z"/>
<path d="M1996 3991 c-4 -5 -2 -12 3 -15 5 -4 12 -2 15 3 4 5 2 12 -3 15 -5 4
-12 2 -15 -3z"/>
<path d="M1956 3962 c-3 -5 1 -9 9 -9 8 0 12 4 9 9 -3 4 -7 8 -9 8 -2 0 -6 -4
-9 -8z"/>
<path d="M1905 3890 c-3 -5 -2 -10 4 -10 5 0 13 5 16 10 3 6 2 10 -4 10 -5 0
-13 -4 -16 -10z"/>
<path d="M675 3300 c-3 -6 1 -7 9 -4 18 7 21 14 7 14 -6 0 -13 -4 -16 -10z"/>
<path d="M2270 3646 c0 -2 7 -6 15 -10 8 -3 15 -1 15 4 0 6 -7 10 -15 10 -8 0
-15 -2 -15 -4z"/>
<path d="M2280 3605 c0 -8 4 -15 10 -15 5 0 7 7 4 15 -4 8 -8 15 -10 15 -2 0
-4 -7 -4 -15z"/>
<path d="M2131 3564 c0 -11 3 -14 6 -6 3 7 2 16 -1 19 -3 4 -6 -2 -5 -13z"/>
<path d="M818 3253 c-21 -8 -38 -19 -38 -24 0 -5 2 -9 4 -9 8 0 76 42 76 46 0
5 1 6 -42 -13z"/>
<path d="M1952 3183 c-6 -2 -10 -8 -7 -13 6 -10 45 -1 45 11 0 10 -17 11 -38
2z"/>
<path d="M2270 2735 c12 -15 30 -12 30 6 0 5 -10 9 -21 9 -18 0 -19 -2 -9 -15z"/>
<path d="M2140 2580 c0 -5 5 -10 11 -10 5 0 7 5 4 10 -3 6 -8 10 -11 10 -2 0
-4 -4 -4 -10z"/>
<path d="M1515 2440 c-3 -5 -2 -10 4 -10 5 0 13 5 16 10 3 6 2 10 -4 10 -5 0
-13 -4 -16 -10z"/>
<path d="M1031 2343 c-1 -16 5 -23 17 -23 10 0 13 3 6 8 -6 4 -14 14 -17 22
-4 10 -6 8 -6 -7z"/>
<path d="M2291 2194 c0 -11 3 -14 6 -6 3 7 2 16 -1 19 -3 4 -6 -2 -5 -13z"/>
<path d="M1745 2089 c-4 -6 -5 -12 -2 -15 2 -3 7 2 10 11 7 17 1 20 -8 4z"/>
<path d="M2862 1694 c-12 -22 -4 -51 15 -59 23 -8 26 0 11 25 -10 18 -10 24 0
27 6 3 10 9 6 14 -8 14 -22 11 -32 -7z"/>
<path d="M3262 4573 c-13 -24 -4 -43 19 -43 14 0 18 6 15 23 -3 12 -5 25 -5
30 -2 13 -20 7 -29 -10z"/>
<path d="M3495 4550 c3 -5 8 -10 11 -10 2 0 4 5 4 10 0 6 -5 10 -11 10 -5 0
-7 -4 -4 -10z"/>
<path d="M2960 4514 c0 -8 5 -12 10 -9 6 4 8 11 5 16 -9 14 -15 11 -15 -7z"/>
<path d="M3208 4513 c-16 -2 -28 -11 -28 -18 0 -18 59 -50 70 -38 9 9 1 64 -9
62 -3 -1 -18 -4 -33 -6z"/>
<path d="M3300 4491 c-14 -27 -13 -31 10 -31 15 0 20 7 20 25 0 30 -15 33 -30
6z"/>
<path d="M3336 4383 c-12 -12 -5 -23 14 -23 11 0 20 4 20 9 0 11 -26 22 -34
14z"/>
<path d="M3515 4350 c3 -5 11 -10 16 -10 6 0 7 5 4 10 -3 6 -11 10 -16 10 -6
0 -7 -4 -4 -10z"/>
<path d="M3377 4163 c-7 -7 21 -43 34 -43 4 0 2 11 -4 25 -12 26 -19 30 -30
18z"/>
<path d="M3467 4084 c-8 -8 3 -34 14 -34 11 0 12 27 0 34 -4 3 -11 3 -14 0z"/>
<path d="M2415 3670 c-3 -5 -1 -10 4 -10 6 0 11 5 11 10 0 6 -2 10 -4 10 -3 0
-8 -4 -11 -10z"/>
<path d="M2558 3513 c6 -10 22 -29 36 -42 23 -22 26 -22 26 -6 0 17 -16 34
-53 56 -16 9 -17 8 -9 -8z"/>
<path d="M680 2861 c0 -6 5 -13 10 -16 6 -3 10 1 10 9 0 9 -4 16 -10 16 -5 0
-10 -4 -10 -9z"/>
<path d="M3175 2660 c3 -5 12 -10 20 -10 8 0 17 5 20 10 4 6 -5 10 -20 10 -15
0 -24 -4 -20 -10z"/>
<path d="M738 2328 c-16 -5 -28 -14 -28 -20 0 -6 -7 -8 -15 -4 -8 3 -15 1 -15
-3 0 -14 32 -22 45 -11 6 5 14 7 18 4 11 -11 34 11 28 27 -5 13 -12 14 -33 7z"/>
<path d="M654 2269 c-3 -6 -1 -16 5 -22 8 -8 11 -5 11 11 0 24 -5 28 -16 11z"/>
<path d="M680 2256 c0 -9 5 -16 10 -16 6 0 10 4 10 9 0 6 -4 13 -10 16 -5 3
-10 -1 -10 -9z"/>
<path d="M620 2220 c0 -5 5 -10 10 -10 6 0 10 5 10 10 0 6 -4 10 -10 10 -5 0
-10 -4 -10 -10z"/>
<path d="M554 2148 c-3 -5 5 -25 17 -45 15 -24 24 -32 27 -22 2 8 11 19 18 25
8 6 12 18 9 27 -7 16 -63 29 -71 15z"/>
<path d="M625 2080 c-3 -5 1 -10 9 -10 9 0 16 5 16 10 0 6 -4 10 -9 10 -6 0
-13 -4 -16 -10z"/>
<path d="M693 1755 c-16 -12 -14 -15 17 -34 38 -23 53 -23 58 1 2 10 -9 22
-27 31 -25 12 -33 13 -48 2z m67 -31 c0 -2 -7 -4 -15 -4 -8 0 -15 4 -15 10 0
5 7 7 15 4 8 -4 15 -8 15 -10z"/>
<path d="M3555 1700 c-4 -6 -5 -25 -4 -43 2 -18 0 -38 -5 -45 -4 -8 5 -22 25
-40 38 -32 56 -40 87 -41 20 -1 22 4 22 44 0 39 5 49 40 83 36 34 42 52 19 52
-4 0 -29 -18 -55 -40 -27 -22 -51 -40 -54 -40 -3 0 -13 18 -23 40 -16 38 -39
51 -52 30z"/>
<path d="M3841 1475 c-97 -24 -176 -58 -185 -81 -3 -8 0 -14 7 -14 7 0 20 -9
29 -19 21 -24 99 -37 143 -24 18 6 53 7 78 3 41 -6 97 6 116 26 10 10 7 94 -3
104 -31 25 -92 27 -185 5z m-31 -75 c0 -11 -6 -20 -14 -20 -21 0 -31 21 -15
31 22 14 29 11 29 -11z m-74 -5 c4 -8 4 -22 0 -30 -7 -19 -36 -8 -36 14 0 32
26 43 36 16z"/>
<path d="M1790 1079 c0 -22 25 -54 33 -42 4 6 -2 22 -13 34 -14 18 -19 20 -20
8z"/>
<path d="M3370 520 c-8 -5 -12 -11 -10 -14 8 -7 60 6 60 15 0 12 -31 11 -50
-1z"/>
</g>
</svg>
